<svg width="18" height="19" viewBox="0 0 18 19" fill="none" xmlns="http://www.w3.org/2000/svg">
<path fill-rule="evenodd" clip-rule="evenodd" d="M17.4443 5.67407C17.3779 4.27173 17.0576 3.02954 16.0303 2.0061C15.0068 0.982666 13.7646 0.662354 12.3623 0.592041C10.917 0.51001 6.58496 0.51001 5.13965 0.592041C3.74121 0.658447 2.49902 0.97876 1.47168 2.0022C0.444336 3.02563 0.12793 4.26782 0.0576172 5.67017C-0.0244141 7.11548 -0.0244141 11.4475 0.0576172 12.8928C0.124023 14.2952 0.444336 15.5374 1.47168 16.5608C2.49902 17.5842 3.7373 17.9045 5.13965 17.9749C6.58496 18.0569 10.917 18.0569 12.3623 17.9749C13.7646 17.9084 15.0068 17.5881 16.0303 16.5608C17.0537 15.5374 17.374 14.2952 17.4443 12.8928C17.5264 11.4475 17.5264 7.11938 17.4443 5.67407ZM8.75293 4.79517C6.26855 4.79517 4.26465 6.79907 4.26465 9.28345C4.26465 11.7678 6.26855 13.7717 8.75293 13.7717C11.2373 13.7717 13.2412 11.7678 13.2412 9.28345C13.2412 6.79907 11.2373 4.79517 8.75293 4.79517ZM8.75293 12.2014C7.14746 12.2014 5.83496 10.8928 5.83496 9.28345C5.83496 7.67407 7.14355 6.36548 8.75293 6.36548C10.3623 6.36548 11.6709 7.67407 11.6709 9.28345C11.6709 10.8928 10.3584 12.2014 8.75293 12.2014ZM14.4717 4.61157C14.4717 5.1936 14.0029 5.65845 13.4248 5.65845C12.8428 5.65845 12.3779 5.1897 12.3779 4.61157C12.3779 4.03345 12.8467 3.5647 13.4248 3.5647C14.0029 3.5647 14.4717 4.03345 14.4717 4.61157Z" fill="white"/>
</svg>
