<svg width="15" height="21" viewBox="0 0 15 21" fill="none" xmlns="http://www.w3.org/2000/svg">
<path d="M2.7714 0.72714L3.8474 0.38314C4.8564 0.0611399 5.9344 0.58214 6.3664 1.60014L7.2264 3.62814C7.6004 4.51114 7.3924 5.55014 6.7124 6.19614L4.8174 7.99414C4.9344 9.07014 5.2964 10.1291 5.9024 11.1711C6.47787 12.1793 7.24977 13.0617 8.1724 13.7661L10.4484 13.0061C11.3104 12.7191 12.2504 13.0501 12.7784 13.8271L14.0114 15.6371C14.6264 16.5411 14.5154 17.7871 13.7524 18.5531L12.9354 19.3741C12.1214 20.1911 10.9584 20.4881 9.8834 20.1521C7.3434 19.3601 5.0104 17.0091 2.8804 13.0991C0.747399 9.18314 -0.00560123 5.85914 0.622399 3.13114C0.886399 1.98314 1.7034 1.06814 2.7714 0.72714Z" fill="white"/>
</svg>
