<svg width="20" height="17" viewBox="0 0 20 17" fill="none" xmlns="http://www.w3.org/2000/svg">
<path d="M17.9441 4.21544C17.9568 4.3931 17.9568 4.57079 17.9568 4.74845C17.9568 10.1672 13.8325 16.4109 6.29441 16.4109C3.97207 16.4109 1.81473 15.7382 0 14.5708C0.329961 14.6088 0.647187 14.6215 0.989844 14.6215C2.90605 14.6215 4.67004 13.9743 6.07867 12.8703C4.27664 12.8322 2.76648 11.652 2.24617 10.0276C2.5 10.0657 2.75379 10.0911 3.02031 10.0911C3.38832 10.0911 3.75637 10.0403 4.09898 9.95149C2.22082 9.57075 0.812148 7.92102 0.812148 5.92864V5.8779C1.35781 6.18247 1.99238 6.37282 2.66492 6.39817C1.56086 5.66212 0.837539 4.40579 0.837539 2.98446C0.837539 2.22306 1.04055 1.52509 1.3959 0.915947C3.41367 3.40325 6.44668 5.02759 9.84766 5.20528C9.78422 4.90071 9.74613 4.58349 9.74613 4.26622C9.74613 2.00731 11.5736 0.167236 13.8451 0.167236C15.0253 0.167236 16.0913 0.662158 16.84 1.46165C17.7664 1.28399 18.6547 0.941338 19.4416 0.471807C19.137 1.4236 18.4898 2.2231 17.6395 2.73067C18.4644 2.64188 19.2639 2.41341 19.9999 2.09618C19.4416 2.90833 18.7436 3.63165 17.9441 4.21544Z" fill="white"/>
</svg>
