<svg width="20" height="21" viewBox="0 0 20 21" fill="none" xmlns="http://www.w3.org/2000/svg">
<path d="M0.00401338 20.2883L1.35601 15.3203C0.465151 13.7932 -0.00289063 12.0563 1.34322e-05 10.2883C1.34322e-05 4.76533 4.47701 0.28833 10 0.28833C15.523 0.28833 20 4.76533 20 10.2883C20 15.8113 15.523 20.2883 10 20.2883C8.23279 20.2912 6.49667 19.8235 4.97001 18.9333L0.00401338 20.2883ZM6.39101 5.59633C6.26188 5.60435 6.13569 5.63836 6.02001 5.69633C5.91153 5.75776 5.81251 5.83455 5.72601 5.92433C5.60601 6.03733 5.53801 6.13533 5.46501 6.23033C5.09542 6.71133 4.89662 7.30175 4.90001 7.90833C4.90201 8.39833 5.03001 8.87533 5.23001 9.32133C5.63901 10.2233 6.31201 11.1783 7.20101 12.0633C7.41501 12.2763 7.62401 12.4903 7.84901 12.6893C8.9524 13.6608 10.2673 14.3614 11.689 14.7353L12.258 14.8223C12.443 14.8323 12.628 14.8183 12.814 14.8093C13.1053 14.7943 13.3896 14.7154 13.647 14.5783C13.778 14.5109 13.9058 14.4375 14.03 14.3583C14.03 14.3583 14.073 14.3303 14.155 14.2683C14.29 14.1683 14.373 14.0973 14.485 13.9803C14.568 13.8943 14.64 13.7933 14.695 13.6783C14.773 13.5153 14.851 13.2043 14.883 12.9453C14.907 12.7473 14.9 12.6393 14.897 12.5723C14.893 12.4653 14.804 12.3543 14.707 12.3073L14.125 12.0463C14.125 12.0463 13.255 11.6673 12.724 11.4253C12.668 11.4009 12.608 11.387 12.547 11.3843C12.4786 11.3773 12.4095 11.385 12.3443 11.4069C12.2791 11.4288 12.2193 11.4644 12.169 11.5113V11.5093C12.164 11.5093 12.097 11.5663 11.374 12.4423C11.3325 12.4981 11.2754 12.5402 11.2098 12.5634C11.1443 12.5865 11.0733 12.5897 11.006 12.5723C10.9409 12.5549 10.877 12.5329 10.815 12.5063C10.691 12.4543 10.648 12.4343 10.563 12.3973L10.558 12.3953C9.98592 12.1456 9.45624 11.8082 8.98801 11.3953C8.86201 11.2853 8.74501 11.1653 8.62501 11.0493C8.23159 10.6726 7.88873 10.2463 7.60501 9.78133L7.54601 9.68633C7.50364 9.62249 7.46937 9.55363 7.44401 9.48133C7.40601 9.33433 7.50501 9.21633 7.50501 9.21633C7.50501 9.21633 7.74801 8.95033 7.86101 8.80633C7.9551 8.68665 8.04289 8.56215 8.12401 8.43333C8.24201 8.24333 8.27901 8.04833 8.21701 7.89733C7.93701 7.21333 7.64701 6.53233 7.34901 5.85633C7.29001 5.72233 7.11501 5.62633 6.95601 5.60733C6.90201 5.60133 6.84801 5.59533 6.79401 5.59133C6.65972 5.58466 6.52515 5.58599 6.39101 5.59533V5.59633Z" fill="white"/>
</svg>
