<svg width="22" height="16" viewBox="0 0 22 16" fill="none" xmlns="http://www.w3.org/2000/svg">
<path d="M20.9716 3.13532C20.7262 2.21149 20.0033 1.48392 19.0855 1.237C17.4218 0.78833 10.7507 0.78833 10.7507 0.78833C10.7507 0.78833 4.07957 0.78833 2.41586 1.237C1.49801 1.48396 0.775117 2.21149 0.529766 3.13532C0.0839844 4.80981 0.0839844 8.30349 0.0839844 8.30349C0.0839844 8.30349 0.0839844 11.7972 0.529766 13.4717C0.775117 14.3955 1.49801 15.0927 2.41586 15.3397C4.07957 15.7883 10.7507 15.7883 10.7507 15.7883C10.7507 15.7883 17.4218 15.7883 19.0855 15.3397C20.0033 15.0927 20.7262 14.3955 20.9716 13.4717C21.4173 11.7972 21.4173 8.30349 21.4173 8.30349C21.4173 8.30349 21.4173 4.80981 20.9716 3.13532ZM8.56883 11.4755V5.13149L14.1446 8.30357L8.56883 11.4755Z" fill="white"/>
</svg>
