<svg width="20" height="20" viewBox="0 0 20 20" fill="none" xmlns="http://www.w3.org/2000/svg">
<path d="M6 9C5.44772 9 5 9.44771 5 10C5 10.5523 5.44772 11 6 11V9ZM14 11C14.5523 11 15 10.5523 15 10C15 9.44771 14.5523 9 14 9V11ZM9 14C9 14.5523 9.44771 15 10 15C10.5523 15 11 14.5523 11 14H9ZM11 6C11 5.44772 10.5523 5 10 5C9.44771 5 9 5.44772 9 6H11ZM10 18C5.58172 18 2 14.4183 2 10H0C0 15.5228 4.47715 20 10 20V18ZM2 10C2 5.58172 5.58172 2 10 2V0C4.47715 0 0 4.47715 0 10H2ZM10 2C14.4183 2 18 5.58172 18 10H20C20 4.47715 15.5228 0 10 0V2ZM18 10C18 14.4183 14.4183 18 10 18V20C15.5228 20 20 15.5228 20 10H18ZM6 11H14V9H6V11ZM11 14V6H9V14H11Z" fill="#4B29A6"/>
</svg>
