<svg width="16" height="17" viewBox="0 0 16 17" fill="none" xmlns="http://www.w3.org/2000/svg">
<g clip-path="url(#clip0_1075_2762)">
<path d="M14.5152 12.6378C14.271 13.1968 13.982 13.7114 13.6471 14.1844C13.1906 14.8293 12.8169 15.2757 12.5289 15.5236C12.0824 15.9305 11.604 16.1389 11.0917 16.1508C10.724 16.1508 10.2805 16.0471 9.76423 15.8367C9.24628 15.6273 8.77029 15.5236 8.33506 15.5236C7.87861 15.5236 7.38906 15.6273 6.86543 15.8367C6.34101 16.0471 5.91854 16.1567 5.59553 16.1676C5.10429 16.1883 4.61465 15.974 4.1259 15.5236C3.81396 15.254 3.42377 14.7918 2.95636 14.137C2.45485 13.4378 2.04255 12.6269 1.71954 11.7025C1.37361 10.704 1.2002 9.73715 1.2002 8.80108C1.2002 7.72882 1.434 6.80401 1.90232 6.02902C2.27038 5.40652 2.76002 4.91547 3.37285 4.55499C3.98567 4.1945 4.64783 4.01081 5.36092 3.99905C5.7511 3.99905 6.26277 4.11865 6.89862 4.35371C7.53268 4.58955 7.9398 4.70916 8.1183 4.70916C8.25175 4.70916 8.70402 4.56931 9.47072 4.2905C10.1958 4.03194 10.8077 3.92488 11.309 3.96705C12.6674 4.07569 13.688 4.60634 14.3667 5.56236C13.1518 6.29182 12.5508 7.31352 12.5628 8.6242C12.5737 9.6451 12.9475 10.4947 13.682 11.1692C14.0149 11.4823 14.3866 11.7243 14.8002 11.8961C14.7105 12.1539 14.6158 12.4008 14.5152 12.6378ZM11.3997 0.489036C11.3997 1.28922 11.1047 2.03635 10.5167 2.72788C9.80709 3.54998 8.94879 4.02503 8.01804 3.95007C8.00618 3.85407 7.9993 3.75304 7.9993 3.64687C7.9993 2.87869 8.33676 2.05659 8.93603 1.38442C9.23522 1.04408 9.61573 0.761097 10.0772 0.535356C10.5376 0.312982 10.9731 0.190005 11.3828 0.168945C11.3947 0.275917 11.3997 0.382896 11.3997 0.489026V0.489036Z" fill="black"/>
</g>
<defs>
<clipPath id="clip0_1075_2762">
<rect width="16" height="16" fill="white" transform="translate(0 0.168945)"/>
</clipPath>
</defs>
</svg>
