<svg width="71" height="72" viewBox="0 0 71 72" fill="none" xmlns="http://www.w3.org/2000/svg">
<path d="M31.8484 54.9117L31.8485 54.9117L57.8526 28.9076C58.9309 27.8293 58.9309 26.0809 57.8526 25.0027L54.6548 21.8049C54.6548 21.8049 54.6548 21.8049 54.6548 21.8049C53.5765 20.7264 51.8281 20.7265 50.7497 21.8049L29.896 42.6585L20.3483 33.1109C19.27 32.0326 17.5217 32.0326 16.4433 33.1108L16.4433 33.1109L13.2455 36.3087C12.1672 37.3869 12.1672 39.1353 13.2455 40.2136L27.9434 54.9115C29.0218 55.9899 30.77 55.9899 31.8484 54.9117ZM70.098 35.9999C70.098 55.0809 54.63 70.549 35.549 70.549C16.4681 70.549 1 55.0809 1 35.9999C1 16.919 16.4681 1.45093 35.549 1.45093C54.63 1.45093 70.098 16.919 70.098 35.9999Z" fill="#4ADE80" stroke="black"/>
</svg>
