<svg width="20" height="16" viewBox="0 0 20 16" fill="none" xmlns="http://www.w3.org/2000/svg">
<path d="M1.21799 2.09204L2.10899 2.54603L1.21799 2.09204ZM2.0918 1.21799L2.54579 2.10899L2.0918 1.21799ZM2.0918 14.782L2.54579 13.891H2.54579L2.0918 14.782ZM1.21799 13.908L0.32698 14.362H0.32698L1.21799 13.908ZM18.7822 13.908L17.8912 13.454L18.7822 13.908ZM17.9078 14.782L17.4538 13.891L17.9078 14.782ZM18.7822 2.09204L17.8912 2.54603V2.54603L18.7822 2.09204ZM17.9078 1.21799L18.3618 0.32698V0.32698L17.9078 1.21799ZM2.58917 1.19199C2.14292 0.866602 1.51738 0.964578 1.19199 1.41083C0.866602 1.85708 0.964578 2.48262 1.41083 2.80801L2.58917 1.19199ZM10.2286 8L9.6394 8.80801C9.99866 9.06997 10.4877 9.06326 10.8397 8.79154L10.2286 8ZM18.6111 2.79154C19.0482 2.45403 19.129 1.82604 18.7915 1.38888C18.454 0.951726 17.826 0.87095 17.3888 1.20846L18.6111 2.79154ZM18 4.19995V11.8H20V4.19995H18ZM15.8002 14H4.2002V16H15.8002V14ZM2 11.8V4.19995H0V11.8H2ZM4.2002 2H15.8002V0H4.2002V2ZM2 4.19995C2 3.6234 2.00078 3.25114 2.02393 2.96783C2.04612 2.6962 2.0838 2.59549 2.10899 2.54603L0.32698 1.63805C0.134191 2.01642 0.0628722 2.40961 0.0305698 2.80495C-0.000777841 3.18861 0 3.6564 0 4.19995H2ZM4.2002 0C3.65663 0 3.18874 -0.000777125 2.80498 0.0305674C2.40962 0.0628601 2.01624 0.134156 1.63781 0.32698L2.54579 2.10899C2.59517 2.08383 2.69595 2.04613 2.9678 2.02393C3.25126 2.00078 3.62365 2 4.2002 2V0ZM2.10899 2.54603C2.205 2.35761 2.35788 2.20474 2.54579 2.10899L1.63781 0.32698C1.07306 0.614732 0.614469 1.07382 0.32698 1.63805L2.10899 2.54603ZM4.2002 14C3.62367 14 3.25127 13.9992 2.96782 13.9761C2.69598 13.9538 2.59519 13.9161 2.54579 13.891L1.63781 15.673C2.01623 15.8658 2.40959 15.9371 2.80496 15.9694C3.18873 16.0008 3.65662 16 4.2002 16V14ZM0 11.8C0 12.3435 -0.000777602 12.8113 0.030569 13.195C0.0628681 13.5904 0.134179 13.9836 0.32698 14.362L2.10899 13.454C2.08381 13.4046 2.04613 13.3039 2.02393 13.0322C2.00078 12.7488 2 12.3765 2 11.8H0ZM2.54579 13.891C2.35778 13.7952 2.20494 13.6424 2.10899 13.454L0.32698 14.362C0.614523 14.9264 1.07317 15.3853 1.63781 15.673L2.54579 13.891ZM18 11.8C18 12.3766 17.9993 12.7489 17.9762 13.0323C17.954 13.3041 17.9163 13.4047 17.8912 13.454L19.6732 14.362C19.8661 13.9835 19.9373 13.5902 19.9696 13.1949C20.0008 12.8112 20 12.3434 20 11.8H18ZM15.8002 16C16.3438 16 16.8115 16.0008 17.1951 15.9694C17.5904 15.9371 17.9835 15.8657 18.3618 15.673L17.4538 13.891C17.4043 13.9162 17.3036 13.9539 17.0321 13.9761C16.7489 13.9992 16.3767 14 15.8002 14V16ZM17.8912 13.454C17.7956 13.6417 17.6425 13.7948 17.4538 13.891L18.3618 15.673C18.9257 15.3856 19.3854 14.927 19.6732 14.362L17.8912 13.454ZM20 4.19995C20 3.6565 20.0008 3.1887 19.9695 2.80511C19.9373 2.40983 19.8661 2.01653 19.6732 1.63805L17.8912 2.54603C17.9164 2.59537 17.954 2.69598 17.9762 2.96767C17.9993 3.25105 18 3.6233 18 4.19995H20ZM15.8002 2C16.3768 2 16.7489 2.00078 17.0321 2.02393C17.3036 2.04611 17.4043 2.08377 17.4538 2.10899L18.3618 0.32698C17.9835 0.134214 17.5904 0.06288 17.1951 0.0305714C16.8115 -0.000778198 16.3437 0 15.8002 0V2ZM19.6732 1.63805C19.3854 1.07316 18.9259 0.614393 18.3618 0.32698L17.4538 2.10899C17.6424 2.20507 17.7956 2.35828 17.8912 2.54603L19.6732 1.63805ZM1.41083 2.80801L9.6394 8.80801L10.8177 7.19199L2.58917 1.19199L1.41083 2.80801ZM10.8397 8.79154L18.6111 2.79154L17.3888 1.20846L9.61745 7.20846L10.8397 8.79154Z" fill="#AD1C9D"/>
</svg>
