<svg width="32" height="32" viewBox="0 0 32 32" fill="none" xmlns="http://www.w3.org/2000/svg">
<path d="M28.3201 26.057C28.3152 25.8873 28.3067 25.6967 28.2922 25.5011C28.269 25.186 28.2315 24.8759 28.1748 24.6245C28.1253 24.4047 28.077 24.3058 28.0623 24.2766C28.0529 24.2703 28.0391 24.2613 28.0202 24.2497C27.9637 24.215 27.8842 24.1704 27.7799 24.1163C27.5719 24.0082 27.2921 23.8753 26.957 23.7241C26.2884 23.4223 25.4279 23.0601 24.5419 22.697C23.2721 22.1766 21.9719 21.6633 21.1205 21.3271C20.7813 21.1932 20.5133 21.0874 20.347 21.0205L28.3201 26.057ZM28.3201 26.057H17.4431L16.7804 23.4453L17.2991 22.9267L17.7585 22.4672L17.2993 22.0076L15.9563 20.6636L15.4963 20.2033L15.0365 20.6638L13.6935 22.0088L13.2346 22.4684L13.6939 22.9277L14.2126 23.4463L13.5498 26.058H2.6743C2.67945 25.8887 2.68826 25.6987 2.7029 25.5037C2.72657 25.1887 2.76426 24.8781 2.82078 24.6262C2.87141 24.4005 2.92072 24.3011 2.93437 24.274C2.94356 24.2678 2.95672 24.2592 2.97465 24.2481C3.03059 24.2136 3.10971 24.1692 3.21371 24.115C3.4211 24.007 3.70043 23.874 4.03525 23.7227C4.70338 23.4206 5.56379 23.0579 6.44981 22.6944C7.77056 22.1526 9.12893 21.6168 9.97429 21.2833C10.2643 21.1689 10.4939 21.0783 10.641 21.0195M28.3201 26.057L17.0588 5.35806C16.7341 5.25959 16.4804 5.17984 16.2851 5.11843C16.1988 5.0913 16.1238 5.06774 16.0592 5.04773C15.8342 4.9781 15.7458 4.95567 15.6841 4.94633C15.6383 4.93939 15.5941 4.93721 15.4486 4.94641C15.4139 4.9486 15.3741 4.95138 15.3289 4.95455C15.1871 4.96447 14.9912 4.97817 14.7272 4.98944L14.7267 4.98946C14.1505 5.01361 13.6218 5.18311 13.2483 5.38139C13.0605 5.48108 12.9325 5.57721 12.8617 5.64691C12.8602 5.64833 12.8588 5.64972 12.8575 5.65109M10.641 21.0195C10.6407 21.0196 10.6404 21.0198 10.6401 21.0199L10.3995 20.416L10.641 21.0195ZM10.641 21.0195C11.3688 20.7292 11.8557 20.1947 12.1509 19.7685C12.2434 19.6348 12.32 19.5076 12.382 19.3952M12.382 19.3952C12.6242 19.3409 12.8426 19.188 12.9812 18.9417C13.1052 18.7214 13.1445 18.465 13.1445 18.209C13.1445 17.9979 13.1252 17.6038 12.7671 17.3653C12.7035 17.323 12.6451 17.2972 12.6135 17.2838C12.6014 17.2787 12.5898 17.274 12.5813 17.2706M12.382 19.3952C12.3817 19.3953 12.3815 19.3953 12.3813 19.3954C12.1679 19.4431 11.9834 19.4045 11.8808 19.3743C11.8246 19.3578 11.7779 19.3393 11.7436 19.3241C11.7262 19.3164 11.7112 19.3092 11.699 19.3031L11.6849 19.2959L11.4745 15.661M12.382 19.3952C12.4205 19.3253 12.4533 19.2612 12.4807 19.2047C12.5166 19.1308 12.5437 19.0691 12.5626 19.024C12.572 19.0014 12.5794 18.9828 12.5849 18.9689L12.5916 18.9514L12.5938 18.9453L12.5947 18.943L12.595 18.942L12.5952 18.9416C12.5953 18.9413 12.5953 18.9412 12.0909 18.7577C12.2403 18.792 12.4945 18.7681 12.4945 18.209C12.4945 17.9354 12.4337 17.9113 12.3332 17.8715C12.1425 17.796 11.8085 17.6637 11.4745 15.661M12.5813 17.2706C12.5604 17.2406 12.5161 17.1662 12.458 17.0105C12.3592 16.7458 12.24 16.2998 12.1156 15.5541L12.0477 15.1471L11.6768 15.0427M12.5813 17.2706C12.5788 17.2697 12.5766 17.2688 12.5747 17.268L12.5737 17.2677L12.5554 17.2603C12.5546 17.26 12.5542 17.2598 12.5542 17.2598C12.5542 17.2599 12.57 17.2673 12.586 17.2802C12.5917 17.2849 12.5944 17.2877 12.5943 17.2877C12.5943 17.2878 12.5898 17.2829 12.5813 17.2706ZM11.6768 15.0427C11.6677 15.0381 11.6505 15.0288 11.6274 15.0128C11.5693 14.9727 11.4642 14.8843 11.3537 14.7073C11.1543 14.3878 10.9089 13.7309 10.9625 12.4604M11.6768 15.0427L11.6531 15.0361L11.6556 15.0368L11.6603 15.0382L11.6684 15.0407L11.6794 15.0444C11.6845 15.0462 11.6854 15.0468 11.6827 15.0456C11.6815 15.045 11.6795 15.0441 11.6768 15.0427ZM10.9625 12.4604L11.5992 12.2526L11.2604 11.5775C11.2604 11.5775 11.2584 11.5734 11.2545 11.564C11.2508 11.5548 11.246 11.5423 11.2403 11.526C11.2288 11.493 11.2156 11.4501 11.201 11.3965C11.1716 11.2889 11.1407 11.1532 11.1093 10.9944C11.0465 10.6771 10.9866 10.2932 10.9345 9.90706C10.8278 9.11696 10.7635 8.3932 10.7635 8.24503C10.7635 8.24504 10.7635 8.24495 10.7635 8.24476C10.7642 8.23906 10.776 8.14368 10.8334 7.93775C10.8857 7.74984 10.9608 7.52257 11.0472 7.29336C11.1338 7.06364 11.2278 6.84266 11.3163 6.66511C11.3605 6.5763 11.4002 6.5047 11.4337 6.45124C11.4637 6.40334 11.4799 6.38436 11.4808 6.38303M10.9625 12.4604L10.8812 12.4869L10.5442 12.5969L10.3591 12.0298L10.3373 12.0407C10.0772 15.268 11.4745 15.661 11.4745 15.661M10.9625 12.4604C10.9682 12.3256 10.9772 12.1838 10.9901 12.0348L10.7262 12.0121L10.443 11.9877L10.6795 11.869L10.5463 11.461C10.314 10.5189 10.1135 8.57839 10.1135 8.24503C10.1135 7.84903 10.6795 6.26503 11.0195 5.92503M11.4808 6.38303C11.4829 6.38118 11.4909 6.37455 11.5074 6.36443C11.5288 6.35132 11.5588 6.33584 11.5983 6.31932C11.6789 6.28563 11.7774 6.25669 11.8816 6.23348C11.9839 6.21068 12.0797 6.19605 12.1503 6.1872C12.1851 6.18283 12.2127 6.18001 12.2305 6.17836L12.2493 6.17672L12.251 6.17658L12.2075 5.52803M11.4808 6.38303C11.4808 6.38298 11.4808 6.38296 11.4808 6.38295C11.4808 6.38294 11.4806 6.38313 11.4802 6.38353M11.4808 6.38303C11.4805 6.3833 11.4803 6.38347 11.4802 6.38353M12.2075 5.52803C12.251 6.17658 12.2511 6.17657 12.2512 6.17656L12.2514 6.17655L12.2518 6.17652L12.2523 6.17649L12.2524 6.17648L12.8575 6.13591V5.65109M12.2075 5.52803C12.2075 5.52803 11.3575 5.58503 11.0195 5.92503M12.2075 5.52803C12.2075 5.13303 13.3395 4.39703 14.6995 4.34003C15.2965 4.31454 15.4996 4.27841 15.6986 4.2941L11.0195 5.92503M12.8575 5.65109V5.52803C12.8575 5.61408 12.8344 5.66832 12.8223 5.68982M12.8575 5.65109C12.8398 5.66877 12.8287 5.68167 12.8223 5.68982M12.8223 5.68982C12.8184 5.69685 12.8156 5.70038 12.8152 5.70039C12.8148 5.7004 12.8168 5.69689 12.8223 5.68982ZM11.0195 5.92503L11.4745 15.661M19.6757 11.829L19.676 11.828L19.6774 11.8221L19.6836 11.7957C19.6891 11.772 19.6972 11.7361 19.7075 11.6895C19.7279 11.5962 19.7566 11.4603 19.7886 11.2931C19.8527 10.9575 19.929 10.5008 19.9797 10.0116C20.0307 9.51898 20.0536 9.0124 20.0182 8.57132C19.9812 8.11091 19.887 7.8138 19.7792 7.6627C19.7791 7.66255 19.779 7.66241 19.7789 7.66226L20.3075 7.28403L19.6757 11.829ZM19.6757 11.829L19.6757 11.8292L19.6757 11.8292L19.6757 11.8293L19.4813 12.632H20.0326C20.0578 13.7918 19.8252 14.4039 19.6347 14.7086C19.5242 14.8854 19.419 14.9737 19.361 15.0137C19.3379 15.0297 19.3207 15.039 19.3116 15.0436L18.9403 15.1478L18.8723 15.5551C18.748 16.3008 18.6288 16.7468 18.53 17.0115C18.4719 17.1672 18.4275 17.2416 18.4067 17.2716C18.3981 17.275 18.3865 17.2797 18.3745 17.2848C18.3429 17.2982 18.2845 17.324 18.2209 17.3663C17.8627 17.6048 17.8435 17.9989 17.8435 18.21C17.8435 18.466 17.8827 18.7224 18.0067 18.9427C18.1453 19.1888 18.3635 19.3417 18.6056 19.3961L19.6757 11.829ZM11.4745 15.661C11.6505 15.0353 11.6511 15.0355 11.6518 15.0357L11.6505 15.0353L11.4745 15.661ZM11.4802 6.38353C11.48 6.38381 11.4796 6.38418 11.4791 6.38466L11.4802 6.38355C11.4802 6.38355 11.4802 6.38354 11.4802 6.38353Z" stroke="#4B5563" stroke-width="1.3"/>
</svg>
