<svg width="24" height="24" viewBox="0 0 24 24" fill="none" xmlns="http://www.w3.org/2000/svg">
<path d="M9.33333 12.5833H1.33333C1.17862 12.5833 1.03025 12.5219 0.920855 12.4125C0.811458 12.3031 0.75 12.1547 0.75 12V1.33333C0.75 1.17862 0.811458 1.03025 0.920854 0.920854C1.03025 0.811458 1.17862 0.75 1.33333 0.75H9.33333C9.48804 0.75 9.63642 0.811458 9.74581 0.920854C9.85521 1.03025 9.91667 1.17862 9.91667 1.33333V12C9.91667 12.1547 9.85521 12.3031 9.74581 12.4125C9.63641 12.5219 9.48804 12.5833 9.33333 12.5833ZM0.920855 23.0791C0.811458 22.9698 0.75 22.8214 0.75 22.6667V17.3333C0.75 17.1786 0.811458 17.0303 0.920853 16.9209C1.03025 16.8115 1.17862 16.75 1.33333 16.75H9.33333C9.48804 16.75 9.63641 16.8115 9.74581 16.9209C9.85521 17.0303 9.91667 17.1786 9.91667 17.3333V22.6667C9.91667 22.8214 9.85521 22.9698 9.74581 23.0791C9.63642 23.1885 9.48804 23.25 9.33333 23.25H1.33333C1.17862 23.25 1.03025 23.1885 0.920855 23.0791ZM14.2542 23.0791C14.1448 22.9698 14.0833 22.8214 14.0833 22.6667V13.3333C14.0833 13.1786 14.1448 13.0303 14.2542 12.9209C14.3636 12.8115 14.512 12.75 14.6667 12.75H22.6667C22.8214 12.75 22.9698 12.8115 23.0791 12.9209C23.1885 13.0302 23.25 13.1786 23.25 13.3333V22.6667C23.25 22.8214 23.1885 22.9698 23.0791 23.0791C22.9698 23.1885 22.8214 23.25 22.6667 23.25H14.6667C14.512 23.25 14.3636 23.1885 14.2542 23.0791ZM22.6667 8.58333H14.6667C14.512 8.58333 14.3636 8.52188 14.2542 8.41248C14.1448 8.30308 14.0833 8.15471 14.0833 8V1.33333C14.0833 1.17862 14.1448 1.03025 14.2542 0.920854C14.3636 0.811458 14.512 0.75 14.6667 0.75H22.6667C22.8214 0.75 22.9698 0.811458 23.0791 0.920853C23.1885 1.03025 23.25 1.17862 23.25 1.33333V8C23.25 8.15471 23.1885 8.30308 23.0791 8.41248C22.9698 8.52188 22.8214 8.58333 22.6667 8.58333Z" stroke="#080E19" stroke-width="1.5"/>
</svg>
