<svg width="20" height="5" viewBox="0 0 20 5" fill="none" xmlns="http://www.w3.org/2000/svg">
<path d="M2.5 4.84375C1.90326 4.84375 1.33097 4.59682 0.90901 4.15728C0.487053 3.71774 0.25 3.1216 0.25 2.5C0.25 1.8784 0.487053 1.28226 0.90901 0.842718C1.33097 0.40318 1.90326 0.15625 2.5 0.15625C3.09674 0.15625 3.66903 0.40318 4.09099 0.842718C4.51295 1.28226 4.75 1.8784 4.75 2.5C4.75 3.1216 4.51295 3.71774 4.09099 4.15728C3.66903 4.59682 3.09674 4.84375 2.5 4.84375ZM10 4.84375C9.40326 4.84375 8.83097 4.59682 8.40901 4.15728C7.98705 3.71774 7.75 3.1216 7.75 2.5C7.75 1.8784 7.98705 1.28226 8.40901 0.842718C8.83097 0.40318 9.40326 0.15625 10 0.15625C10.5967 0.15625 11.169 0.40318 11.591 0.842718C12.0129 1.28226 12.25 1.8784 12.25 2.5C12.25 3.1216 12.0129 3.71774 11.591 4.15728C11.169 4.59682 10.5967 4.84375 10 4.84375ZM17.5 4.84375C16.9033 4.84375 16.331 4.59682 15.909 4.15728C15.4871 3.71774 15.25 3.1216 15.25 2.5C15.25 1.8784 15.4871 1.28226 15.909 0.842718C16.331 0.40318 16.9033 0.15625 17.5 0.15625C18.0967 0.15625 18.669 0.40318 19.091 0.842718C19.5129 1.28226 19.75 1.8784 19.75 2.5C19.75 3.1216 19.5129 3.71774 19.091 4.15728C18.669 4.59682 18.0967 4.84375 17.5 4.84375Z" fill="#080E19"/>
</svg>
