<svg width="16" height="16" viewBox="0 0 16 16" fill="none" xmlns="http://www.w3.org/2000/svg">
<path fill-rule="evenodd" clip-rule="evenodd" d="M7.96038 13.574C7.78942 13.5763 7.6177 13.5057 7.49471 13.3623L3.24582 8.40741C3.02494 8.14983 3.05081 7.75856 3.30361 7.5335C3.55641 7.30843 3.94041 7.33479 4.1613 7.59238L7.35005 11.311L7.35005 3.04501C7.35005 2.70295 7.6222 2.42566 7.9579 2.42566C8.29361 2.42566 8.56575 2.70295 8.56575 3.04501V11.3018L11.7563 7.59172C11.9775 7.33445 12.3616 7.30864 12.614 7.53407C12.8665 7.7595 12.8919 8.15081 12.6706 8.40807L8.45864 13.3059C8.34944 13.4672 8.16708 13.5732 7.96038 13.574Z" fill="#DC2626"/>
</svg>
