<svg width="18" height="18" viewBox="0 0 18 18" fill="none" xmlns="http://www.w3.org/2000/svg">
<path d="M1 17.0001H0C0 17.2653 0.105358 17.5197 0.292895 17.7072C0.480433 17.8948 0.734788 18.0001 1.00001 18.0001L1 17.0001ZM1 13.0001L0.292892 12.293C0.105357 12.4805 0 12.7349 0 13.0001H1ZM11.8686 2.13146L11.1615 1.42435L11.1615 1.42436L11.8686 2.13146ZM14.1313 2.13146L13.4242 2.83857V2.83857L14.1313 2.13146ZM15.8686 3.86872L16.5757 3.16162V3.16162L15.8686 3.86872ZM15.8686 6.13146L15.1615 5.42436V5.42436L15.8686 6.13146ZM5 17.0001L5.00001 18.0001C5.26522 18.0001 5.51957 17.8947 5.70711 17.7072L5 17.0001ZM16.5369 4.69112L17.4879 4.3821L16.5369 4.69112ZM16.5369 5.30908L15.5858 5.00006L16.5369 5.30908ZM12.691 1.46325L12.382 0.512194V0.512194L12.691 1.46325ZM13.3091 1.46325L13.6181 0.512194V0.512194L13.3091 1.46325ZM2 17.0001V13.0001H0V17.0001H2ZM1.70711 13.7072L12.5757 2.83857L11.1615 1.42436L0.292892 12.293L1.70711 13.7072ZM13.4242 2.83857L15.1615 4.57583L16.5757 3.16162L14.8385 1.42436L13.4242 2.83857ZM15.1615 5.42436L4.29289 16.293L5.70711 17.7072L16.5757 6.83857L15.1615 5.42436ZM4.99999 16.0001L0.999994 16.0001L1.00001 18.0001L5.00001 18.0001L4.99999 16.0001ZM15.1615 4.57583C15.3712 4.7855 15.4854 4.9008 15.5611 4.98999C15.6292 5.07026 15.6058 5.06155 15.5858 5.00014L17.4879 4.3821C17.3938 4.09237 17.2342 3.87046 17.0858 3.69562C16.9449 3.5297 16.7621 3.34796 16.5757 3.16162L15.1615 4.57583ZM16.5757 6.83857C16.7621 6.65222 16.9449 6.47049 17.0858 6.30456C17.2342 6.12971 17.3938 5.90781 17.4879 5.61809L15.5858 5.00006C15.6058 4.93867 15.6292 4.92995 15.5611 5.01021C15.4854 5.09939 15.3712 5.21469 15.1615 5.42436L16.5757 6.83857ZM15.5858 5.00014L15.5858 5.00006L17.4879 5.61809C17.6184 5.2164 17.6184 4.78379 17.4879 4.3821L15.5858 5.00014ZM12.5757 2.83857C12.7854 2.62891 12.9007 2.51472 12.9899 2.43903C13.0701 2.3709 13.0614 2.39436 13 2.41431L12.382 0.512194C12.0923 0.606324 11.8704 0.765884 11.6955 0.914316C11.5296 1.05517 11.3479 1.238 11.1615 1.42435L12.5757 2.83857ZM14.8385 1.42436C14.6522 1.23806 14.4704 1.05522 14.3046 0.914387C14.1298 0.765956 13.9079 0.606345 13.6181 0.512194L13.0001 2.41431C12.9386 2.39434 12.9299 2.37083 13.0101 2.43896C13.0993 2.51468 13.2145 2.62885 13.4242 2.83857L14.8385 1.42436ZM13 2.41431H13.0001L13.6181 0.512194C13.2164 0.381678 12.7837 0.381678 12.382 0.512194L13 2.41431Z" fill="#4B29A6"/>
</svg>
