<svg width="17" height="17" viewBox="0 0 17 17" fill="none" xmlns="http://www.w3.org/2000/svg">
<path d="M2.09473 8.90599C2.0955 12.1856 4.48033 14.978 7.71939 15.492V10.8327H6.02806V8.90599H7.72139V7.43932C7.64569 6.74434 7.88307 6.05171 8.36915 5.54927C8.85523 5.04683 9.53963 4.78666 10.2367 4.83932C10.7371 4.8474 11.2362 4.89196 11.7301 4.97265V6.61199H10.8874C10.5973 6.57399 10.3056 6.6698 10.0946 6.87243C9.88352 7.07506 9.77591 7.36258 9.80206 7.65399V8.90599H11.6494L11.3541 10.8333H9.80206V15.492C13.305 14.9384 15.7615 11.7392 15.3917 8.21203C15.022 4.6849 11.9556 2.0646 8.41394 2.24944C4.8723 2.43427 2.09529 5.35952 2.09473 8.90599Z" fill="#6D7280"/>
</svg>
