<svg width="16" height="17" viewBox="0 0 16 17" fill="none" xmlns="http://www.w3.org/2000/svg">
<g clip-path="url(#clip0_1075_2759)">
<path fill-rule="evenodd" clip-rule="evenodd" d="M15.68 8.85121C15.68 8.28393 15.6291 7.73848 15.5345 7.21484H8V10.3094H12.3055C12.12 11.3094 11.5564 12.1567 10.7091 12.7239V14.7312H13.2945C14.8073 13.3385 15.68 11.2876 15.68 8.85121Z" fill="#4285F4"/>
<path fill-rule="evenodd" clip-rule="evenodd" d="M8.00065 16.6685C10.1607 16.6685 11.9716 15.9521 13.2952 14.7303L10.7097 12.723C9.99338 13.203 9.07702 13.4867 8.00065 13.4867C5.91702 13.4867 4.15338 12.0794 3.52429 10.1885H0.851562V12.2612C2.16793 14.8758 4.87338 16.6685 8.00065 16.6685Z" fill="#34A853"/>
<path fill-rule="evenodd" clip-rule="evenodd" d="M3.52364 10.1889C3.36364 9.7089 3.27273 9.19617 3.27273 8.6689C3.27273 8.14163 3.36364 7.6289 3.52364 7.1489V5.07617H0.850909C0.309091 6.15617 0 7.37799 0 8.6689C0 9.95981 0.309091 11.1816 0.850909 12.2616L3.52364 10.1889Z" fill="#FBBC05"/>
<path fill-rule="evenodd" clip-rule="evenodd" d="M8.00065 3.85076C9.1752 3.85076 10.2297 4.2544 11.0588 5.04713L13.3534 2.75258C11.9679 1.46167 10.157 0.668945 8.00065 0.668945C4.87338 0.668945 2.16793 2.46167 0.851562 5.07622L3.52429 7.14895C4.15338 5.25804 5.91702 3.85076 8.00065 3.85076Z" fill="#EA4335"/>
</g>
<defs>
<clipPath id="clip0_1075_2759">
<rect width="16" height="16" fill="white" transform="translate(0 0.668945)"/>
</clipPath>
</defs>
</svg>
