<svg width="13" height="13" viewBox="0 0 13 13" fill="none" xmlns="http://www.w3.org/2000/svg">
<path d="M6.25684 12.9312C4.61684 12.9312 4.4235 12.9226 3.7835 12.8946C3.28442 12.8781 2.79179 12.7767 2.32684 12.5946C1.52238 12.2815 0.886263 11.6451 0.573503 10.8406C0.398373 10.3739 0.303915 9.88088 0.294169 9.38256C0.256836 8.74389 0.256836 8.53456 0.256836 6.90723C0.256836 5.26256 0.265503 5.07056 0.294169 4.43389C0.304128 3.93624 0.398583 3.4439 0.573503 2.97789C0.885923 2.17225 1.52307 1.53534 2.32884 1.22323C2.7946 1.04736 3.28707 0.952656 3.78484 0.943227C4.4215 0.907227 4.63084 0.907227 6.25684 0.907227C7.91017 0.907227 8.10017 0.915893 8.73017 0.943227C9.22923 0.952738 9.723 1.04743 10.1902 1.22323C10.9957 1.5357 11.6327 2.17248 11.9455 2.97789C12.1236 3.45069 12.2185 3.95073 12.2262 4.45589C12.2635 5.09456 12.2635 5.30323 12.2635 6.92989C12.2635 8.55656 12.2542 8.76989 12.2262 9.40123C12.2162 9.90003 12.1216 10.3935 11.9462 10.8606C11.6326 11.6657 10.9955 12.3023 10.1902 12.6152C9.72367 12.79 9.23091 12.8845 8.73284 12.8946C8.09617 12.9312 7.8875 12.9312 6.25684 12.9312ZM6.23417 1.96256C4.6035 1.96256 4.43417 1.97056 3.7975 1.99923C3.41749 2.00426 3.04116 2.07439 2.68484 2.20656C2.15867 2.4079 1.74232 2.82255 1.53884 3.34789C1.40564 3.70809 1.33551 4.08855 1.3315 4.47256C1.29617 5.11856 1.29617 5.28789 1.29617 6.90723C1.29617 8.50723 1.30217 8.70123 1.3315 9.34323C1.33747 9.72336 1.40757 10.0998 1.53884 10.4566C1.74262 10.9816 2.1589 11.3959 2.68484 11.5972C3.04091 11.7303 3.4174 11.8004 3.7975 11.8046C4.44284 11.8419 4.61284 11.8419 6.23417 11.8419C7.8695 11.8419 8.03884 11.8339 8.67017 11.8046C9.05044 11.7999 9.42706 11.7298 9.7835 11.5972C10.3065 11.3942 10.7201 10.9808 10.9235 10.4579C11.0564 10.0974 11.1266 9.71676 11.1308 9.33256H11.1382C11.1668 8.69523 11.1668 8.52523 11.1668 6.89656C11.1668 5.26789 11.1595 5.09656 11.1308 4.45989C11.1249 4.08019 11.0548 3.70423 10.9235 3.34789C10.7206 2.82428 10.3069 2.41009 9.7835 2.20656C9.42714 2.07372 9.05046 2.00357 8.67017 1.99923C8.0255 1.96256 7.85684 1.96256 6.23417 1.96256ZM6.25684 9.98656C5.01016 9.98737 3.88578 9.23705 3.40808 8.08553C2.93037 6.93401 3.19344 5.60811 4.07459 4.7262C4.95574 3.84429 6.28141 3.58007 7.43334 4.05678C8.58527 4.53349 9.33657 5.65722 9.33684 6.90389C9.335 8.6046 7.95754 9.98325 6.25684 9.98656ZM6.25684 4.90256C5.15227 4.90256 4.25684 5.79799 4.25684 6.90256C4.25684 8.00713 5.15227 8.90256 6.25684 8.90256C7.36141 8.90256 8.25684 8.00713 8.25684 6.90256C8.25427 5.79905 7.36034 4.90513 6.25684 4.90256ZM9.45684 4.42723C9.06045 4.42575 8.7401 4.10362 8.74084 3.70723C8.74157 3.31085 9.06311 2.9899 9.4595 2.9899C9.85589 2.9899 10.1774 3.31084 10.1782 3.70723C10.1783 3.89847 10.1024 4.08191 9.96701 4.21701C9.83166 4.35211 9.64808 4.42776 9.45684 4.42723Z" fill="#6D7280"/>
</svg>
