<svg width="32" height="32" viewBox="0 0 32 32" fill="none" xmlns="http://www.w3.org/2000/svg">
<path d="M6.66667 6.66658H9.33333V10.6666H22.6667V6.66658H25.3333V13.3333H28V6.66658C28 5.19992 26.8 3.99992 25.3333 3.99992H19.76C19.2 2.45325 17.7333 1.33325 16 1.33325C14.2667 1.33325 12.8 2.45325 12.24 3.99992H6.66667C5.2 3.99992 4 5.19992 4 6.66658V25.3333C4 26.7999 5.2 27.9999 6.66667 27.9999H14.6667V25.3333H6.66667V6.66658ZM16 3.99992C16.7333 3.99992 17.3333 4.59992 17.3333 5.33325C17.3333 6.06659 16.7333 6.66658 16 6.66658C15.2667 6.66658 14.6667 6.06659 14.6667 5.33325C14.6667 4.59992 15.2667 3.99992 16 3.99992Z" fill="#4B5563"/>
<path d="M28.0003 15.3333L20.6803 22.6666L16.667 18.6666L14.667 20.6666L20.6803 26.6666L30.0003 17.3333L28.0003 15.3333Z" fill="#4B5563"/>
</svg>
