<svg width="32" height="32" viewBox="0 0 32 32" fill="none" xmlns="http://www.w3.org/2000/svg">
<path d="M11 15.3927H21V17.6805H11V15.3927ZM11 19.7121H21V22H11V19.7121ZM11 11H21V13.1598H15.867H11V11Z" fill="#4B5563"/>
<path d="M22.6706 2.09229L19.2799 0.56L16.1999 2.09229L12.8199 0.56L9.67992 2.09229L4.91992 0V32L9.67992 29.6938L12.8399 31.0504L16.1999 29.6938L19.5 31.0504L23 29.6938L27.0799 32V0L22.6706 2.09229ZM25 28.5L23 27.6109L19.5 29L16.1999 27.6109L12.8399 29L9.67992 27.6109L7 28.5V16V3.5L9.67992 4.5L12.8199 3L16.1999 4.5L19.2799 3.01073L22.5 4.5L25 3.5V16V28.5Z" fill="#4B5563"/>
</svg>
