<svg width="17" height="17" viewBox="0 0 17 17" fill="none" xmlns="http://www.w3.org/2000/svg">
<path d="M9.17838 14.9043H6.51172V6.9043H9.17838V8.23763C9.74681 7.51447 10.6088 7.08334 11.5284 7.0623C13.1821 7.07148 14.5165 8.41722 14.5117 10.071V14.9043H11.8451V10.4043C11.7384 9.65938 11.0996 9.10668 10.3471 9.1083C10.0179 9.1187 9.70721 9.26281 9.48668 9.50738C9.26614 9.75194 9.15481 10.0758 9.17838 10.4043V14.9043ZM5.17839 14.9043H2.51172V6.9043H5.17839V14.9043ZM3.84505 5.57096C3.10867 5.57096 2.51172 4.97401 2.51172 4.23763C2.51172 3.50125 3.10867 2.9043 3.84505 2.9043C4.58143 2.9043 5.17839 3.50125 5.17839 4.23763C5.17839 4.59125 5.03791 4.93039 4.78786 5.18044C4.53781 5.43049 4.19867 5.57096 3.84505 5.57096Z" fill="#6D7280"/>
</svg>
