<svg width="16" height="20" viewBox="0 0 16 20" fill="none" xmlns="http://www.w3.org/2000/svg">
<path d="M7.12319 18.3255L7.75671 17.5517L7.12319 18.3255ZM8.87695 18.3255L9.51048 19.0992L8.87695 18.3255ZM7.72885 18.7135L7.99986 17.7509H7.99986L7.72885 18.7135ZM8.271 18.7135L8.542 19.6761L8.271 18.7135ZM8 8C7.44772 8 7 7.55228 7 7H5C5 8.65685 6.34315 10 8 10V8ZM7 7C7 6.44772 7.44772 6 8 6V4C6.34315 4 5 5.34315 5 7H7ZM8 6C8.55228 6 9 6.44772 9 7H11C11 5.34315 9.65685 4 8 4V6ZM9 7C9 7.55228 8.55228 8 8 8V10C9.65685 10 11 8.65685 11 7H9ZM7.75671 17.5517C6.85427 16.8128 5.39515 15.4879 4.1689 13.7829C2.9376 12.071 2 10.0586 2 7.9231H0C0 10.6394 1.18463 13.059 2.54525 14.9508C3.91092 16.8495 5.5134 18.2998 6.48967 19.0992L7.75671 17.5517ZM2 7.9231C2 6.35578 2.62943 4.85037 3.75344 3.73871L2.34706 2.31671C0.845567 3.8017 0 5.81818 0 7.9231H2ZM3.75344 3.73871C4.87782 2.62669 6.40519 2 8.00004 2V0C5.88186 0 3.84819 0.832077 2.34706 2.31671L3.75344 3.73871ZM8.00004 2C9.59488 2 11.1222 2.62669 12.2466 3.73872L13.6529 2.31672C12.1518 0.832101 10.1182 0 8.00004 0V2ZM12.2466 3.73872C13.3706 4.85038 14 6.35574 14 7.92306H16C16 5.81816 15.1544 3.80172 13.6529 2.31672L12.2466 3.73872ZM14 7.92306C14 10.0585 13.0624 12.071 11.8311 13.7829C10.6049 15.4879 9.14586 16.8128 8.24343 17.5517L9.51048 19.0992C10.4868 18.2998 12.0892 16.8495 13.4548 14.9507C14.8154 13.059 16 10.6394 16 7.92306H14ZM6.48967 19.0992C6.71624 19.2847 7.01696 19.5519 7.45784 19.6761L7.99986 17.7509C8.0053 17.7524 8.01394 17.7556 8.02191 17.7594C8.02858 17.7626 8.0261 17.7622 8.01033 17.7516C7.99299 17.7399 7.96623 17.7205 7.92214 17.6857C7.87739 17.6505 7.8263 17.6087 7.75671 17.5517L6.48967 19.0992ZM8.24343 17.5517C8.17394 17.6086 8.12285 17.6504 8.07815 17.6856C8.0341 17.7203 8.00733 17.7397 7.98997 17.7514C7.97417 17.762 7.97163 17.7625 7.9782 17.7593C7.98606 17.7555 7.99462 17.7524 7.99999 17.7509L8.542 19.6761C8.98266 19.552 9.2833 19.2852 9.51048 19.0992L8.24343 17.5517ZM7.45784 19.6761C7.79127 19.7699 8.20858 19.7699 8.542 19.6761L7.99999 17.7509C8.01087 17.7479 8.01813 17.7464 8.02124 17.7458C8.02447 17.7451 8.02526 17.7451 8.02356 17.7453C8.02192 17.7455 8.01882 17.7458 8.01444 17.7461C8.01008 17.7463 8.00516 17.7465 7.99992 17.7465C7.99469 17.7465 7.98977 17.7463 7.98541 17.7461C7.98103 17.7458 7.97793 17.7455 7.97629 17.7453C7.97459 17.7451 7.97537 17.7451 7.97861 17.7458C7.98172 17.7464 7.98897 17.7479 7.99986 17.7509L7.45784 19.6761Z" fill="#AD1C9D"/>
</svg>
