<svg width="27" height="22" viewBox="0 0 27 22" fill="none" xmlns="http://www.w3.org/2000/svg">
<path d="M1.79065 3.1228L2.68166 3.57679L1.79065 3.1228ZM2.95573 1.9574L3.40972 2.8484L2.95573 1.9574ZM2.95573 20.0427L3.40972 19.1517H3.40972L2.95573 20.0427ZM1.79065 18.8775L0.899643 19.3314H0.899643L1.79065 18.8775ZM25.2096 18.8775L24.3186 18.4235L25.2096 18.8775ZM24.0437 20.0427L23.5897 19.1517L24.0437 20.0427ZM25.2096 3.1228L24.3186 3.57679L25.2096 3.1228ZM24.0437 1.9574L24.4977 1.06639V1.06639L24.0437 1.9574ZM3.42251 2.19207C2.97626 1.86668 2.35072 1.96466 2.02533 2.41091C1.69994 2.85716 1.79791 3.4827 2.24416 3.80809L3.42251 2.19207ZM13.8048 11.0001L13.2156 11.8081C13.5749 12.0701 14.0639 12.0633 14.4159 11.7916L13.8048 11.0001ZM24.7777 3.79162C25.2149 3.45411 25.2956 2.82612 24.9581 2.38896C24.6206 1.95181 23.9926 1.87103 23.5555 2.20854L24.7777 3.79162ZM24.5 5.93335V16.0667H26.5V5.93335H24.5ZM21.2336 19.3334H5.76693V21.3334H21.2336V19.3334ZM2.5 16.0667V5.93335H0.5V16.0667H2.5ZM5.76693 2.66675H21.2336V0.666748H5.76693V2.66675ZM2.5 5.93335C2.5 5.17011 2.50078 4.65785 2.53301 4.26337C2.56429 3.88058 2.62013 3.69755 2.68166 3.57679L0.899643 2.66881C0.670523 3.11849 0.581038 3.594 0.539653 4.1005C0.499222 4.59532 0.5 5.20312 0.5 5.93335H2.5ZM5.76693 0.666748C5.03668 0.666748 4.42874 0.665971 3.93378 0.706398C3.42721 0.747774 2.95148 0.837236 2.50174 1.06639L3.40972 2.8484C3.53041 2.78691 3.71354 2.73105 4.09659 2.69976C4.49126 2.66753 5.0037 2.66675 5.76693 2.66675V0.666748ZM2.68166 3.57679C2.84158 3.26293 3.09637 3.00806 3.40972 2.8484L2.50174 1.06639C1.81155 1.41806 1.25105 1.97914 0.899643 2.66881L2.68166 3.57679ZM5.76693 19.3334C5.00371 19.3334 4.49127 19.3326 4.09662 19.3004C3.71357 19.2691 3.53042 19.2132 3.40972 19.1517L2.50174 20.9337C2.95147 21.1629 3.42718 21.2524 3.93376 21.2937C4.42873 21.3342 5.03667 21.3334 5.76693 21.3334V19.3334ZM0.5 16.0667C0.5 16.7969 0.499222 17.4048 0.539652 17.8996C0.581034 18.4062 0.670511 18.8817 0.899643 19.3314L2.68166 18.4235C2.62014 18.3027 2.56429 18.1197 2.53301 17.7368C2.50078 17.3422 2.5 16.8299 2.5 16.0667H0.5ZM3.40972 19.1517C3.09627 18.992 2.84152 18.7372 2.68166 18.4235L0.899643 19.3314C1.2511 20.0212 1.81166 20.5821 2.50174 20.9337L3.40972 19.1517ZM24.5 16.0667C24.5 16.83 24.4993 17.3423 24.4671 17.7369C24.4359 18.1199 24.3801 18.3028 24.3186 18.4235L26.1006 19.3314C26.3298 18.8816 26.4192 18.4059 26.4605 17.8995C26.5008 17.4047 26.5 16.7968 26.5 16.0667H24.5ZM21.2336 21.3334C21.9638 21.3334 22.5715 21.3342 23.0663 21.2937C23.5727 21.2523 24.0481 21.1628 24.4977 20.9337L23.5897 19.1517C23.4689 19.2133 23.2859 19.2691 22.9033 19.3004C22.509 19.3326 21.9968 19.3334 21.2336 19.3334V21.3334ZM24.3186 18.4235C24.1591 18.7366 23.9038 18.9917 23.5897 19.1517L24.4977 20.9337C25.1871 20.5825 25.7488 20.0219 26.1006 19.3314L24.3186 18.4235ZM26.5 5.93335C26.5 5.20322 26.5008 4.59541 26.4605 4.10066C26.4192 3.59421 26.3298 3.1186 26.1006 2.66881L24.3186 3.57679C24.3801 3.69744 24.4359 3.88037 24.4671 4.26321C24.4993 4.65776 24.5 5.17001 24.5 5.93335H26.5ZM21.2336 2.66675C21.9968 2.66675 22.509 2.66753 22.9033 2.69976C23.286 2.73103 23.4689 2.78685 23.5897 2.8484L24.4977 1.06639C24.0481 0.837294 23.5727 0.747794 23.0663 0.706402C22.5715 0.66597 21.9638 0.666748 21.2336 0.666748V2.66675ZM26.1006 2.66881C25.7489 1.97848 25.1872 1.41772 24.4977 1.06639L23.5897 2.8484C23.9037 3.0084 24.159 3.2636 24.3186 3.57679L26.1006 2.66881ZM2.24416 3.80809L13.2156 11.8081L14.3939 10.1921L3.42251 2.19207L2.24416 3.80809ZM14.4159 11.7916L24.7777 3.79162L23.5555 2.20854L13.1936 10.2085L14.4159 11.7916Z" fill="#160051"/>
</svg>
