<svg width="21" height="20" viewBox="0 0 21 20" fill="none" xmlns="http://www.w3.org/2000/svg">
<path d="M6.01025 17.8018L5.51065 18.668L6.01025 17.8018ZM5.32454 17.7252L5.64076 18.6739H5.64076L5.32454 17.7252ZM3.01807 18.494L2.70184 17.5454H2.70184L3.01807 18.494ZM2.00586 17.4821L2.95454 17.7984H2.95454L2.00586 17.4821ZM2.77468 15.1757L1.826 14.8594H1.826L2.77468 15.1757ZM2.69819 14.4899L1.83194 14.9895L1.83194 14.9895L2.69819 14.4899ZM2.84513 14.9144L3.8428 14.9827L2.84513 14.9144ZM2.82816 14.7471L3.79202 14.4807L2.82816 14.7471ZM2.12256 18.6804L1.78668 19.6223H1.78668L2.12256 18.6804ZM1.8194 18.3773L2.7613 18.0414L1.8194 18.3773ZM5.75293 17.6719L6.01934 16.708L5.75293 17.6719ZM5.58542 17.655L5.51719 16.6574L5.58542 17.655ZM10.5001 18C9.04503 18 7.68349 17.6124 6.50985 16.9355L5.51065 18.668C6.98 19.5154 8.685 20 10.5001 20V18ZM5.00831 16.7765L2.70184 17.5454L3.33429 19.4427L5.64076 18.6739L5.00831 16.7765ZM2.95454 17.7984L3.72337 15.4919L1.826 14.8594L1.05718 17.1659L2.95454 17.7984ZM3.56445 13.9903C2.88758 12.8166 2.5 11.4551 2.5 10H0.5C0.5 11.8151 0.984512 13.5201 1.83194 14.9895L3.56445 13.9903ZM2.5 10C2.5 5.58172 6.08172 2 10.5 2V0C4.97715 0 0.5 4.47715 0.5 10H2.5ZM10.5 2C14.9183 2 18.5 5.58172 18.5 10H20.5C20.5 4.47715 16.0228 0 10.5 0V2ZM18.5 10C18.5 14.4183 14.9184 18 10.5001 18V20C16.023 20 20.5 15.5228 20.5 10H18.5ZM3.72337 15.4919C3.74878 15.4157 3.82762 15.2046 3.8428 14.9827L1.84746 14.8462C1.8496 14.815 1.85361 14.7891 1.85725 14.7706C1.86062 14.7535 1.86338 14.7442 1.86257 14.747C1.86224 14.7482 1.86133 14.7513 1.85956 14.7571C1.85779 14.7628 1.85543 14.7703 1.85226 14.7801C1.84908 14.7899 1.84538 14.8011 1.84093 14.8146C1.83644 14.8281 1.83161 14.8426 1.826 14.8594L3.72337 15.4919ZM1.83194 14.9895C1.85142 15.0233 1.86558 15.0478 1.87746 15.0688C1.88933 15.0898 1.89512 15.1006 1.89779 15.1057C1.90037 15.1107 1.8965 15.1036 1.89016 15.0886C1.88331 15.0724 1.87348 15.0467 1.8643 15.0135L3.79202 14.4807C3.73249 14.2653 3.60817 14.0661 3.56444 13.9903L1.83194 14.9895ZM3.8428 14.9827C3.8546 14.81 3.83768 14.6459 3.79202 14.4807L1.8643 15.0135C1.85901 14.9944 1.85275 14.966 1.84921 14.9311C1.84567 14.8963 1.84605 14.8668 1.84746 14.8462L3.8428 14.9827ZM2.70184 17.5454C2.57737 17.5868 2.4792 17.6195 2.39476 17.6461C2.30964 17.6729 2.25529 17.6881 2.2194 17.6965C2.18169 17.7053 2.18933 17.7006 2.22432 17.6993C2.26406 17.6978 2.35087 17.7001 2.45844 17.7385L1.78668 19.6223C2.15233 19.7527 2.49403 19.6864 2.67665 19.6435C2.87422 19.5971 3.10883 19.5179 3.33429 19.4427L2.70184 17.5454ZM1.05718 17.1659C0.982097 17.3911 0.902822 17.6257 0.856403 17.823C0.813474 18.0056 0.747029 18.3473 0.877493 18.7132L2.7613 18.0414C2.79968 18.1491 2.80199 18.236 2.80046 18.2759C2.79912 18.311 2.7944 18.3187 2.80327 18.281C2.81171 18.2451 2.8269 18.1908 2.85371 18.1056C2.88032 18.0211 2.91302 17.9229 2.95454 17.7984L1.05718 17.1659ZM2.45844 17.7385C2.59942 17.7887 2.71076 17.8997 2.7613 18.0414L0.877493 18.7132C1.02886 19.1377 1.36298 19.4712 1.78668 19.6223L2.45844 17.7385ZM6.50985 16.9355C6.43282 16.8911 6.23442 16.7675 6.01934 16.708L5.48652 18.6357C5.45357 18.6266 5.42805 18.6169 5.41194 18.6101C5.39702 18.6038 5.39005 18.6 5.39496 18.6025C5.40003 18.6051 5.41076 18.6109 5.43162 18.6227C5.45251 18.6345 5.47704 18.6486 5.51065 18.668L6.50985 16.9355ZM5.64076 18.6739C5.6575 18.6683 5.67194 18.6635 5.68536 18.6591C5.6987 18.6546 5.70987 18.651 5.71959 18.6478C5.7293 18.6447 5.73665 18.6424 5.74231 18.6406C5.74796 18.6389 5.75101 18.638 5.75211 18.6377C5.75478 18.637 5.74544 18.6397 5.72832 18.6431C5.71944 18.6448 5.70841 18.6467 5.69556 18.6484C5.68263 18.6502 5.6686 18.6517 5.65365 18.6527L5.51719 16.6574C5.29572 16.6725 5.0864 16.7505 5.00831 16.7765L5.64076 18.6739ZM6.01934 16.708C5.85242 16.6619 5.68804 16.6457 5.51719 16.6574L5.65365 18.6527C5.63377 18.6541 5.60477 18.6545 5.57011 18.651C5.5354 18.6475 5.50663 18.6413 5.48652 18.6357L6.01934 16.708Z" fill="#160051"/>
</svg>
