<svg width="32" height="32" viewBox="0 0 32 32" fill="none" xmlns="http://www.w3.org/2000/svg">
<path d="M15.9994 30.471C16.5594 30.4581 17.0967 30.2476 17.5164 29.8767C17.9361 29.5058 18.2111 28.9984 18.2927 28.4443H13.6172C13.7012 29.0135 13.989 29.5328 14.4272 29.9056C14.8654 30.2784 15.4241 30.4793 15.9994 30.471Z" fill="black"/>
<path d="M28.8976 24.7378C28.0404 23.9736 27.29 23.0976 26.6665 22.1333C25.9858 20.8022 25.5778 19.3486 25.4665 17.8578V13.4666C25.4629 12.9333 25.4153 12.4011 25.3243 11.8755C24.6246 11.7357 23.9522 11.4835 23.3332 11.1289C23.5691 11.8887 23.689 12.6799 23.6887 13.4755V17.8666C23.7977 19.6853 24.2979 21.4591 25.1554 23.0666C25.7691 24.0391 26.4972 24.9344 27.3243 25.7333H4.55983C5.38686 24.9344 6.11503 24.0391 6.72872 23.0666C7.58615 21.4591 8.08643 19.6853 8.19538 17.8666V13.4666C8.1907 12.4379 8.38899 11.4184 8.77889 10.4664C9.16878 9.51442 9.74263 8.64869 10.4676 7.91879C11.1925 7.1889 12.0543 6.60916 13.0036 6.21279C13.9529 5.81642 14.9711 5.6112 15.9998 5.60887C17.5054 5.61007 18.9772 6.05532 20.2309 6.88887C20.0927 6.3813 20.0151 5.85914 19.9998 5.33331V4.77331C19.0717 4.31675 18.0746 4.01642 17.0487 3.88443V2.76443C17.0487 2.4497 16.9237 2.14787 16.7011 1.92533C16.4786 1.70278 16.1768 1.57776 15.862 1.57776C15.5473 1.57776 15.2455 1.70278 15.0229 1.92533C14.8004 2.14787 14.6754 2.4497 14.6754 2.76443V3.92887C12.3782 4.25292 10.2759 5.39709 8.75647 7.15014C7.23704 8.9032 6.40314 11.1468 6.40872 13.4666V17.8578C6.29739 19.3486 5.88941 20.8022 5.20872 22.1333C4.59617 23.0954 3.85778 23.9713 3.01316 24.7378C2.91834 24.8211 2.84235 24.9236 2.79024 25.0385C2.73813 25.1535 2.7111 25.2782 2.71094 25.4044V26.6133C2.71094 26.8491 2.80459 27.0752 2.97129 27.2419C3.13799 27.4086 3.36408 27.5022 3.59983 27.5022H28.3109C28.5467 27.5022 28.7728 27.4086 28.9395 27.2419C29.1062 27.0752 29.1998 26.8491 29.1998 26.6133V25.4044C29.1997 25.2782 29.1726 25.1535 29.1205 25.0385C29.0684 24.9236 28.9924 24.8211 28.8976 24.7378Z" fill="black"/>
<path d="M26.6671 9.77781C29.1217 9.77781 31.1115 7.78796 31.1115 5.33336C31.1115 2.87876 29.1217 0.888916 26.6671 0.888916C24.2125 0.888916 22.2227 2.87876 22.2227 5.33336C22.2227 7.78796 24.2125 9.77781 26.6671 9.77781Z" fill="#FFAD09"/>
</svg>
