<svg width="24" height="26" viewBox="0 0 24 26" fill="none" xmlns="http://www.w3.org/2000/svg">
<path d="M21.6673 25C21.6673 25.5523 22.115 26 22.6673 26C23.2196 26 23.6673 25.5523 23.6673 25H21.6673ZM0.333984 25C0.333984 25.5523 0.7817 26 1.33398 26C1.88627 26 2.33398 25.5523 2.33398 25H0.333984ZM23.6673 25C23.6673 22.6898 22.1719 20.7497 20.0731 19.438C17.9603 18.1174 15.1036 17.3333 12.0007 17.3333V19.3333C14.7887 19.3333 17.2654 20.0416 19.0131 21.134C20.7749 22.2351 21.6673 23.6283 21.6673 25H23.6673ZM12.0007 17.3333C8.8977 17.3333 6.04104 18.1174 3.92818 19.438C1.82941 20.7497 0.333984 22.6898 0.333984 25H2.33398C2.33398 23.6283 3.22637 22.2351 4.98818 21.134C6.73589 20.0416 9.21257 19.3333 12.0007 19.3333V17.3333ZM12.0007 13.3333C8.87104 13.3333 6.33398 10.7963 6.33398 7.66667H4.33398C4.33398 11.9009 7.76647 15.3333 12.0007 15.3333V13.3333ZM6.33398 7.66667C6.33398 4.53705 8.87104 2 12.0007 2V0C7.76647 0 4.33398 3.43248 4.33398 7.66667H6.33398ZM12.0007 2C15.1303 2 17.6673 4.53705 17.6673 7.66667H19.6673C19.6673 3.43248 16.2348 0 12.0007 0V2ZM17.6673 7.66667C17.6673 10.7963 15.1303 13.3333 12.0007 13.3333V15.3333C16.2348 15.3333 19.6673 11.9009 19.6673 7.66667H17.6673Z" fill="#4B5563"/>
</svg>
