<svg width="21" height="21" viewBox="0 0 21 21" fill="none" xmlns="http://www.w3.org/2000/svg">
<path d="M8.60066 10.9851C8.21013 11.3756 8.21013 12.0088 8.60066 12.3993C8.99118 12.7899 9.62435 12.7899 10.0149 12.3993L8.60066 10.9851ZM14.861 7.55317C15.2515 7.16265 15.2515 6.52948 14.861 6.13896C14.4705 5.74844 13.8373 5.74844 13.4468 6.13896L14.861 7.55317ZM19.1113 3.88855L20.0671 4.18263L19.1113 3.88855ZM15.0207 17.1831L15.9764 17.4772L15.0207 17.1831ZM12.0603 17.4281L11.1659 17.8753L12.0603 17.4281ZM9.46938 12.2462L8.57496 12.6934L9.46938 12.2462ZM8.75383 11.5306L8.30662 12.4251L8.75383 11.5306ZM3.57192 8.93969L4.01914 8.04527L3.57192 8.93969ZM3.81704 5.97943L3.52296 5.02365L3.81704 5.97943ZM17.1116 1.88879L17.4057 2.84457L17.1116 1.88879ZM1.75601 7.75891L2.67965 7.37566L1.75601 7.75891ZM1.83169 6.84567L0.983619 6.31578L1.83169 6.84567ZM9.27749 11.904L8.48548 12.5146H8.48548L9.27749 11.904ZM9.09623 11.7225L8.48572 12.5145L9.09623 11.7225ZM14.1544 19.1684L13.6246 18.3203L14.1544 19.1684ZM13.2416 19.244L13.6248 18.3203L13.2416 19.244ZM19.4277 2.16662L20.3665 1.822L19.4277 2.16662ZM18.8334 1.57251L18.4888 2.51125L18.8334 1.57251ZM10.0149 12.3993L14.861 7.55317L13.4468 6.13896L8.60066 10.9851L10.0149 12.3993ZM18.1555 3.59446L14.0649 16.889L15.9764 17.4772L20.0671 4.18263L18.1555 3.59446ZM12.9548 16.9809L10.3638 11.799L8.57496 12.6934L11.1659 17.8753L12.9548 16.9809ZM9.20104 10.6362L4.01914 8.04527L3.12471 9.83412L8.30662 12.4251L9.20104 10.6362ZM4.11113 6.93521L17.4057 2.84457L16.8175 0.933012L3.52296 5.02365L4.11113 6.93521ZM4.01914 8.04527C3.44381 7.7576 3.07331 7.57134 2.8231 7.41749C2.54158 7.24438 2.61919 7.22995 2.67965 7.37566L0.832362 8.14216C1.03573 8.63228 1.46365 8.92942 1.77553 9.12118C2.11873 9.33221 2.58473 9.56413 3.12471 9.83412L4.01914 8.04527ZM3.52296 5.02365C2.94592 5.2012 2.44813 5.35337 2.07489 5.50512C1.73571 5.64302 1.26478 5.86578 0.983619 6.31578L2.67976 7.37555C2.59618 7.50932 2.52202 7.48231 2.82818 7.35784C3.10026 7.24721 3.49635 7.12437 4.11113 6.93521L3.52296 5.02365ZM2.67965 7.37566L2.67976 7.37555L0.983619 6.31578C0.641033 6.86409 0.584393 7.54455 0.832362 8.14216L2.67965 7.37566ZM10.3638 11.799C10.2922 11.6557 10.2013 11.4645 10.0695 11.2935L8.48548 12.5146C8.47292 12.4983 8.471 12.4917 8.48562 12.5184C8.50395 12.5518 8.52756 12.5986 8.57496 12.6934L10.3638 11.799ZM8.30662 12.4251C8.40177 12.4727 8.44865 12.4962 8.48234 12.5147C8.50926 12.5294 8.50243 12.5274 8.48572 12.5145L9.70673 10.9305C9.53548 10.7985 9.34313 10.7073 9.20104 10.6362L8.30662 12.4251ZM10.0695 11.2935C9.9656 11.1587 9.84412 11.0364 9.70673 10.9305L8.48572 12.5145L8.48548 12.5146L10.0695 11.2935ZM14.0649 16.889C13.8757 17.5038 13.7529 17.8999 13.6423 18.1719C13.5178 18.4781 13.4908 18.4039 13.6246 18.3203L14.6843 20.0165C15.1343 19.7353 15.3571 19.2644 15.495 18.9252C15.6467 18.552 15.7989 18.0543 15.9764 17.4772L14.0649 16.889ZM11.1659 17.8753C11.436 18.4155 11.668 18.8815 11.8792 19.2247C12.0712 19.5367 12.3684 19.9643 12.8583 20.1676L13.6248 18.3203C13.7703 18.3807 13.7557 18.458 13.5826 18.1766C13.4287 17.9266 13.2423 17.5561 12.9548 16.9809L11.1659 17.8753ZM13.6246 18.3203L13.6248 18.3203L12.8583 20.1676C13.4558 20.4155 14.1359 20.3592 14.6843 20.0165L13.6246 18.3203ZM20.0671 4.18263C20.2053 3.73324 20.3305 3.32999 20.3998 3.00076C20.4668 2.68223 20.525 2.2539 20.3665 1.822L18.489 2.51125C18.4466 2.39583 18.4908 2.35998 18.4426 2.58906C18.3967 2.80742 18.3055 3.1069 18.1555 3.59446L20.0671 4.18263ZM17.4057 2.84457C17.8932 2.69456 18.1927 2.60347 18.4109 2.55758C18.6399 2.50945 18.6041 2.55358 18.4888 2.51125L19.178 0.633771C18.7462 0.475258 18.3181 0.53338 17.9995 0.600365C17.6702 0.669586 17.267 0.794722 16.8175 0.933012L17.4057 2.84457ZM20.3665 1.822C20.1639 1.27029 19.729 0.836033 19.178 0.633771L18.4888 2.51125L18.489 2.51125L20.3665 1.822Z" fill="#CC33BB"/>
</svg>
