<svg width="26" height="28" viewBox="0 0 26 28" fill="none" xmlns="http://www.w3.org/2000/svg">
<path d="M22.4145 21.8985L22.9145 22.7645L22.4145 21.8985ZM15.1341 26.1018L14.6341 25.2358L15.1341 26.1018ZM10.8663 26.1018L11.3663 25.2358L10.8663 26.1018ZM3.58594 21.8985L3.08594 22.7645H3.08594L3.58594 21.8985ZM3.58594 6.10183L3.08594 5.2358L3.58594 6.10183ZM10.8663 1.89852L10.3663 1.0325L10.8663 1.89852ZM15.1328 1.89852L14.6328 2.76455L14.6328 2.76455L15.1328 1.89852ZM22.4132 6.10183L22.9132 5.2358L22.4132 6.10183ZM12.4461 1.13762L12.654 2.11577L12.4461 1.13762ZM13.5547 1.13762L13.7626 0.159471L13.5547 1.13762ZM1.58364 8.04908L2.5347 8.35809L1.58364 8.04908ZM2.13802 7.08875L1.39488 6.41961H1.39488L2.13802 7.08875ZM2.13802 20.9115L1.39488 21.5807H1.39488L2.13802 20.9115ZM1.58364 19.9512L2.5347 19.6422L1.58364 19.9512ZM13.5547 26.8627L13.3468 25.8845L13.5547 26.8627ZM12.4461 26.8627L12.2382 27.8408L12.4461 26.8627ZM24.4167 19.9512L23.4656 19.6422L24.4167 19.9512ZM23.8624 20.9115L24.6056 21.5807V21.5807L23.8624 20.9115ZM24.4167 8.04908L25.3677 7.74006L24.4167 8.04908ZM23.8624 7.08875L23.1193 7.75788L23.8624 7.08875ZM23.5469 9.7968V18.2034H25.5469V9.7968H23.5469ZM21.9145 21.0325L14.6341 25.2358L15.6341 26.9679L22.9145 22.7645L21.9145 21.0325ZM11.3663 25.2358L4.08594 21.0325L3.08594 22.7645L10.3663 26.9679L11.3663 25.2358ZM2.45312 18.2034V9.7968H0.453125V18.2034H2.45312ZM4.08594 6.96785L11.3663 2.76455L10.3663 1.0325L3.08594 5.2358L4.08594 6.96785ZM14.6328 2.76455L21.9132 6.96785L22.9132 5.2358L15.6328 1.0325L14.6328 2.76455ZM11.3663 2.76455C12.2012 2.28249 12.4324 2.16287 12.654 2.11577L12.2382 0.159471C11.6335 0.287995 11.0857 0.617145 10.3663 1.0325L11.3663 2.76455ZM15.6328 1.0325C14.9147 0.617894 14.3676 0.288068 13.7626 0.159471L13.3468 2.11577C13.568 2.1628 13.7966 2.28174 14.6328 2.76455L15.6328 1.0325ZM12.654 2.11577C12.8825 2.06721 13.1183 2.06721 13.3468 2.11577L13.7626 0.159471C13.26 0.0526372 12.7408 0.0526372 12.2382 0.159471L12.654 2.11577ZM2.45312 9.7968C2.45312 8.83194 2.46474 8.57339 2.5347 8.35809L0.632584 7.74006C0.441506 8.32814 0.453125 8.96683 0.453125 9.7968H2.45312ZM3.08594 5.2358C2.36676 5.65102 1.80855 5.96018 1.39488 6.41961L2.88117 7.75788C3.03272 7.58956 3.25076 7.45005 4.08594 6.96785L3.08594 5.2358ZM2.5347 8.35809C2.60691 8.13586 2.72495 7.93137 2.88117 7.75788L1.39488 6.41961C1.05098 6.80155 0.791337 7.25147 0.632584 7.74006L2.5347 8.35809ZM4.08594 21.0325C3.25084 20.5504 3.03273 20.4107 2.88117 20.2424L1.39488 21.5807C1.80854 22.0401 2.36667 22.3493 3.08594 22.7645L4.08594 21.0325ZM0.453125 18.2034C0.453125 19.0334 0.441506 19.6721 0.632584 20.2602L2.5347 19.6422C2.46474 19.4269 2.45312 19.1683 2.45312 18.2034H0.453125ZM2.88117 20.2424C2.72497 20.0689 2.60692 19.8644 2.5347 19.6422L0.632584 20.2602C0.791328 20.7488 1.05096 21.1987 1.39488 21.5807L2.88117 20.2424ZM14.6341 25.2358C13.799 25.718 13.5683 25.8375 13.3468 25.8845L13.7626 27.8408C14.3673 27.7123 14.9149 27.3831 15.6341 26.9679L14.6341 25.2358ZM10.3663 26.9679C11.0857 27.3832 11.6335 27.7123 12.2382 27.8408L12.654 25.8845C12.4324 25.8374 12.2011 25.7178 11.3663 25.2358L10.3663 26.9679ZM13.3468 25.8845C13.1183 25.9331 12.8825 25.9331 12.654 25.8845L12.2382 27.8408C12.7408 27.9477 13.26 27.9477 13.7626 27.8408L13.3468 25.8845ZM23.5469 18.2034C23.5469 19.1689 23.5355 19.427 23.4656 19.6422L25.3677 20.2602C25.5588 19.672 25.5469 19.0328 25.5469 18.2034H23.5469ZM22.9145 22.7645C23.6336 22.3493 24.1919 22.0401 24.6056 21.5807L23.1193 20.2424C22.9678 20.4107 22.7496 20.5503 21.9145 21.0325L22.9145 22.7645ZM23.4656 19.6422C23.3933 19.8647 23.2753 20.0691 23.1193 20.2424L24.6056 21.5807C24.9497 21.1985 25.2091 20.7485 25.3677 20.2602L23.4656 19.6422ZM25.5469 9.7968C25.5469 8.96744 25.5588 8.32827 25.3677 7.74006L23.4656 8.35809C23.5355 8.57326 23.5469 8.83133 23.5469 9.7968H25.5469ZM21.9132 6.96785C22.7496 7.4508 22.968 7.58983 23.1193 7.75788L24.6056 6.41961C24.1917 5.95992 23.631 5.65027 22.9132 5.2358L21.9132 6.96785ZM25.3677 7.74006C25.2091 7.25172 24.9497 6.80175 24.6056 6.41961L23.1193 7.75788C23.2753 7.93118 23.3933 8.13561 23.4656 8.35809L25.3677 7.74006ZM13 17.0001C11.3431 17.0001 10 15.6569 10 14.0001H8C8 16.7615 10.2386 19.0001 13 19.0001V17.0001ZM10 14.0001C10 12.3432 11.3431 11.0001 13 11.0001V9.00009C10.2386 9.00009 8 11.2387 8 14.0001H10ZM13 11.0001C14.6569 11.0001 16 12.3432 16 14.0001H18C18 11.2387 15.7614 9.00009 13 9.00009V11.0001ZM16 14.0001C16 15.6569 14.6569 17.0001 13 17.0001V19.0001C15.7614 19.0001 18 16.7615 18 14.0001H16Z" fill="#4B5563"/>
</svg>
