<svg width="17" height="17" viewBox="0 0 17 17" fill="none" xmlns="http://www.w3.org/2000/svg">
<path d="M13.3378 5.3623C13.9354 5.00503 14.3826 4.44246 14.5958 3.77964C14.0343 4.11284 13.4198 4.34756 12.7792 4.47364C11.8909 3.53399 10.4835 3.30532 9.34342 3.91541C8.20335 4.5255 7.61282 5.8233 7.90182 7.08364C5.60156 6.96815 3.45847 5.88158 2.00582 4.0943C1.24772 5.40192 1.63512 7.07349 2.89116 7.9143C2.43696 7.8997 1.99284 7.77673 1.59582 7.55564C1.59582 7.56764 1.59582 7.57964 1.59582 7.59164C1.59609 8.95374 2.55607 10.127 3.89116 10.397C3.46987 10.5116 3.02796 10.5285 2.59916 10.4463C2.97462 11.6112 4.04819 12.4092 5.27182 12.433C4.25838 13.2284 3.00681 13.6597 1.71849 13.6576C1.49014 13.658 1.26196 13.6448 1.03516 13.6183C2.34342 14.459 3.86607 14.9052 5.42116 14.9036C7.58466 14.9185 9.66384 14.0656 11.1936 12.5357C12.7234 11.0057 13.5762 8.92647 13.5612 6.76297C13.5612 6.63897 13.5583 6.51564 13.5525 6.39297C14.1128 5.98804 14.5964 5.4864 14.9805 4.91164C14.4585 5.14301 13.9048 5.29492 13.3378 5.3623Z" fill="#6D7280"/>
</svg>
