<svg width="15" height="16" viewBox="0 0 15 16" fill="none" xmlns="http://www.w3.org/2000/svg">
<path fill-rule="evenodd" clip-rule="evenodd" d="M7.6264 2.42572C7.45544 2.42347 7.28372 2.49407 7.16072 2.6375L2.91184 7.59234C2.69096 7.84993 2.71683 8.24119 2.96963 8.46626C3.22243 8.69133 3.60643 8.66496 3.82731 8.40738L7.01607 4.68881L7.01607 12.9547C7.01607 13.2968 7.28821 13.5741 7.62392 13.5741C7.95962 13.5741 8.23177 13.2968 8.23177 12.9547V4.69799L11.4223 8.40804C11.6435 8.66531 12.0276 8.69111 12.2801 8.46568C12.5325 8.24025 12.5579 7.84895 12.3366 7.59168L8.12466 2.69386C8.01546 2.53252 7.8331 2.42656 7.6264 2.42572Z" fill="#15803D"/>
</svg>
