<svg width="56" height="56" viewBox="0 0 56 56" fill="none" xmlns="http://www.w3.org/2000/svg">
<rect width="56" height="56" rx="28" fill="#160051"/>
<path d="M37.6673 40C37.6673 40.5523 38.115 41 38.6673 41C39.2196 41 39.6673 40.5523 39.6673 40H37.6673ZM16.334 40C16.334 40.5523 16.7817 41 17.334 41C17.8863 41 18.334 40.5523 18.334 40H16.334ZM39.6673 40C39.6673 37.6898 38.1719 35.7497 36.0731 34.438C33.9603 33.1174 31.1036 32.3333 28.0007 32.3333V34.3333C30.7887 34.3333 33.2654 35.0416 35.0131 36.134C36.7749 37.2351 37.6673 38.6283 37.6673 40H39.6673ZM28.0007 32.3333C24.8977 32.3333 22.041 33.1174 19.9282 34.438C17.8294 35.7497 16.334 37.6898 16.334 40H18.334C18.334 38.6283 19.2264 37.2351 20.9882 36.134C22.7359 35.0416 25.2126 34.3333 28.0007 34.3333V32.3333ZM28.0007 28.3333C24.871 28.3333 22.334 25.7963 22.334 22.6667H20.334C20.334 26.9009 23.7665 30.3333 28.0007 30.3333V28.3333ZM22.334 22.6667C22.334 19.5371 24.871 17 28.0007 17V15C23.7665 15 20.334 18.4325 20.334 22.6667H22.334ZM28.0007 17C31.1303 17 33.6673 19.5371 33.6673 22.6667H35.6673C35.6673 18.4325 32.2348 15 28.0007 15V17ZM33.6673 22.6667C33.6673 25.7963 31.1303 28.3333 28.0007 28.3333V30.3333C32.2348 30.3333 35.6673 26.9009 35.6673 22.6667H33.6673Z" fill="#F9FAFB"/>
</svg>
