<svg width="32" height="32" viewBox="0 0 32 32" fill="none" xmlns="http://www.w3.org/2000/svg">
<path d="M19.1413 3.46001C19.1695 3.42462 19.2045 3.39533 19.2443 3.37391C19.2841 3.35248 19.3278 3.33938 19.3728 3.33539C19.4179 3.33139 19.4632 3.3366 19.5062 3.35069C19.5491 3.36478 19.5888 3.38745 19.6227 3.41734L20.8507 4.5L16.9853 9.33334H19.5467L22.3547 5.82401L24.5573 7.76667C24.6225 7.82423 24.6625 7.90495 24.669 7.99162C24.6755 8.0783 24.6479 8.16408 24.592 8.23067L23.672 9.33334H26.264C26.5851 8.86331 26.7232 8.29212 26.6525 7.72731C26.5818 7.1625 26.3071 6.64302 25.88 6.26667L20.9467 1.916C20.7087 1.70641 20.4305 1.54753 20.129 1.44906C19.8275 1.3506 19.5092 1.31462 19.1934 1.34332C18.8775 1.37202 18.5709 1.46479 18.2921 1.61599C18.0133 1.76718 17.7683 1.97361 17.572 2.22267L11.968 9.33334H14.5147L19.1413 3.46001ZM21.6667 18.6667C21.4014 18.6667 21.1471 18.772 20.9596 18.9596C20.772 19.1471 20.6667 19.4015 20.6667 19.6667C20.6667 19.9319 20.772 20.1862 20.9596 20.3738C21.1471 20.5613 21.4014 20.6667 21.6667 20.6667H24.3333C24.5985 20.6667 24.8529 20.5613 25.0404 20.3738C25.228 20.1862 25.3333 19.9319 25.3333 19.6667C25.3333 19.4015 25.228 19.1471 25.0404 18.9596C24.8529 18.772 24.5985 18.6667 24.3333 18.6667H21.6667ZM6 9.66667C6 9.40145 6.10536 9.1471 6.29289 8.95957C6.48043 8.77203 6.73478 8.66667 7 8.66667H11.1707L12.76 6.66667H7C6.20435 6.66667 5.44129 6.98274 4.87868 7.54535C4.31607 8.10796 4 8.87102 4 9.66667V23.6667C4 24.8159 4.45655 25.9181 5.2692 26.7308C6.08186 27.5435 7.18406 28 8.33333 28H24.3333C25.4826 28 26.5848 27.5435 27.3975 26.7308C28.2101 25.9181 28.6667 24.8159 28.6667 23.6667V15C28.6667 13.8507 28.2101 12.7485 27.3975 11.9359C26.5848 11.1232 25.4826 10.6667 24.3333 10.6667H7C6.73478 10.6667 6.48043 10.5613 6.29289 10.3738C6.10536 10.1862 6 9.93189 6 9.66667ZM6 23.6667V12.496C6.31333 12.6067 6.64933 12.6667 7 12.6667H24.3333C25.6213 12.6667 26.6667 13.712 26.6667 15V23.6667C26.6667 24.2855 26.4208 24.879 25.9832 25.3166C25.5457 25.7542 24.9522 26 24.3333 26H8.33333C7.71449 26 7.121 25.7542 6.68342 25.3166C6.24583 24.879 6 24.2855 6 23.6667Z" fill="#4B5563"/>
</svg>
